<?xml version="1.0" standalone="no"?>
<!DOCTYPE svg PUBLIC "-//W3C//DTD SVG 20010904//EN"
 "http://www.w3.org/TR/2001/REC-SVG-20010904/DTD/svg10.dtd">
<svg version="1.0" xmlns="http://www.w3.org/2000/svg"
 width="578.000000pt" height="578.000000pt" viewBox="0 0 578.000000 578.000000"
 preserveAspectRatio="xMidYMid meet">
<metadata>
Created by potrace 1.14, written by Peter Selinger 2001-2017
</metadata>
<g transform="translate(0.000000,578.000000) scale(0.100000,-0.100000)"
fill="#000000" stroke="none">
<path d="M0 2890 l0 -2890 2890 0 2890 0 0 2890 0 2890 -2890 0 -2890 0 0
-2890z m1580 1180 c119 -23 230 -97 287 -192 53 -88 63 -147 63 -375 l0 -203
-145 0 -145 0 0 191 c0 158 -3 197 -17 226 -21 46 -67 73 -122 73 -37 0 -49
-6 -82 -39 l-39 -39 0 -766 c0 -846 -3 -806 63 -846 61 -38 145 -14 179 50 16
31 18 63 18 342 l0 308 -65 0 -65 0 0 140 0 140 210 0 210 0 0 -635 0 -635
-145 0 -145 0 0 133 -1 132 -17 -50 c-66 -192 -214 -271 -363 -194 -51 26
-114 101 -141 168 l-23 56 -5 790 c-3 435 -2 822 2 861 15 171 150 322 320
359 79 17 102 18 168 5z m994 0 c84 -14 162 -55 227 -119 105 -106 128 -192
129 -478 l0 -173 -145 0 -145 0 0 173 c-1 207 -7 241 -54 285 -29 26 -44 32
-78 32 -54 0 -100 -27 -121 -73 -15 -32 -17 -105 -17 -784 0 -707 1 -750 18
-783 34 -64 118 -88 179 -50 68 41 68 40 68 385 l0 310 -67 3 -68 3 0 139 0
140 215 0 215 0 -2 -632 -3 -633 -142 -3 -143 -3 -1 138 c-1 127 -2 135 -14
98 -35 -112 -94 -188 -175 -224 -112 -51 -246 4 -313 128 -56 102 -57 116 -57
971 0 493 4 801 11 829 17 75 60 149 119 205 62 60 114 90 193 111 63 17 94
18 171 5z m1893 -14 c80 -21 140 -56 189 -108 59 -63 86 -126 93 -215 l7 -73
-133 0 -133 0 0 38 c-1 89 -53 125 -175 119 -88 -4 -118 -17 -136 -60 -10 -24
-9 -32 8 -55 23 -31 60 -45 192 -73 145 -30 233 -65 287 -112 62 -55 84 -104
84 -193 0 -190 -157 -305 -420 -305 -238 0 -402 132 -417 337 l-6 74 132 0
131 0 0 -30 c0 -90 51 -130 166 -130 105 0 166 41 151 102 -9 34 -49 53 -162
77 -258 56 -341 97 -392 194 -21 41 -28 150 -14 204 25 92 114 169 233 204 77
22 241 24 315 5z m-1097 -971 l0 -975 26 -10 c14 -6 102 -10 195 -10 l169 0 0
-140 0 -140 -252 0 c-146 0 -269 5 -291 11 -21 5 -54 24 -74 42 -73 64 -68
-15 -71 1150 l-3 1047 151 0 150 0 0 -975z m1095 -251 c172 -43 285 -178 285
-341 l0 -53 -130 0 -130 0 0 38 c0 51 -19 84 -60 104 -44 23 -146 24 -199 2
-68 -27 -77 -90 -17 -129 12 -8 83 -28 157 -44 170 -38 238 -64 296 -115 61
-54 83 -103 83 -192 0 -190 -153 -304 -413 -305 -153 0 -272 48 -349 142 -49
60 -69 111 -75 197 l-6 72 132 0 131 0 0 -30 c0 -90 51 -130 166 -130 105 0
166 41 151 102 -9 36 -50 53 -207 87 -270 60 -357 126 -368 282 -11 153 74
259 245 308 86 25 221 27 308 5z m-695 -1282 c0 -25 31 -24 38 0 5 22 37 20
37 -2 0 -9 8 -14 18 -12 12 2 17 -4 17 -24 0 -19 -4 -25 -15 -20 -9 3 -18 -1
-21 -9 -8 -19 -30 -19 -38 0 -3 8 -12 15 -21 15 -8 0 -15 -7 -15 -15 0 -8 -9
-15 -20 -15 -11 0 -20 7 -20 15 0 9 -6 12 -15 9 -11 -5 -15 1 -15 20 0 18 4
24 15 20 10 -4 15 0 15 15 0 14 6 21 20 21 13 0 20 -7 20 -18z m229 -15 c18
-20 19 -26 8 -35 -11 -9 -19 -6 -36 12 -13 14 -20 29 -16 35 9 16 19 13 44
-12z m224 8 c1 -5 -19 -11 -45 -13 -34 -2 -48 -7 -48 -18 0 -10 12 -14 40 -14
39 0 39 -1 34 -30 -6 -26 -4 -30 15 -30 14 0 21 -6 21 -20 0 -19 -7 -20 -110
-20 -103 0 -110 1 -110 20 0 16 7 20 30 20 35 0 42 25 9 33 -25 7 -16 27 12
27 10 0 19 7 19 15 0 10 -10 15 -30 15 -20 0 -30 5 -30 15 0 13 15 15 95 13
53 -2 96 -7 98 -13z m-1139 -51 c-3 -38 -1 -44 11 -34 7 6 28 12 46 12 46 2
59 -22 59 -109 0 -71 -1 -73 -25 -73 -24 0 -25 2 -25 71 l0 70 -27 -3 c-27 -3
-28 -6 -33 -68 -5 -60 -7 -65 -29 -65 -23 0 -24 2 -25 100 -2 130 1 145 29
145 20 0 22 -4 19 -46z m606 -54 l0 -100 -25 4 c-14 3 -31 -2 -39 -10 -31 -30
-36 -15 -36 96 l0 110 50 0 50 0 0 -100z m-1966 76 c45 -19 55 -58 26 -98 -23
-32 -25 -24 25 -100 l17 -28 -26 0 c-21 0 -33 10 -54 45 -37 60 -62 60 -62 0
0 -41 -2 -45 -25 -45 l-25 0 0 120 0 120 45 0 c25 0 61 -6 79 -14z m247 -62
c10 -9 19 -31 21 -50 l4 -34 -58 0 c-45 0 -58 -3 -58 -15 0 -22 44 -37 75 -25
14 5 26 7 26 5 10 -35 -3 -45 -59 -45 -57 0 -92 33 -92 87 0 85 83 129 141 77z
m201 10 c4 -3 5 -11 1 -20 -4 -10 -14 -13 -38 -8 -43 8 -55 -12 -18 -28 63
-27 80 -63 46 -100 -11 -13 -30 -18 -65 -18 -44 0 -48 2 -48 25 0 21 3 23 23
17 25 -10 57 -5 57 9 0 5 -17 17 -39 28 -57 29 -61 79 -8 101 20 8 71 4 89 -6z
m200 -12 c9 -9 19 -32 21 -49 l5 -33 -59 0 c-32 0 -59 -4 -59 -8 0 -19 27 -32
67 -32 24 0 43 -4 43 -8 0 -34 -92 -44 -130 -14 -30 24 -38 93 -16 127 31 47
91 54 128 17z m220 1 c18 -22 18 -154 0 -161 -8 -2 -18 1 -23 9 -6 11 -11 11
-21 1 -17 -17 -73 -15 -88 3 -18 22 -15 66 6 82 10 7 35 13 56 13 40 0 48 10
23 30 -9 7 -26 9 -45 5 -19 -4 -30 -3 -30 4 0 6 -1 14 -2 18 -4 10 50 19 84
15 15 -2 33 -11 40 -19z m198 2 c0 -17 -5 -25 -18 -25 -31 0 -42 -22 -42 -82
0 -55 -1 -58 -25 -58 -25 0 -25 1 -25 90 0 83 1 90 20 90 12 0 20 -7 20 -17 0
-11 3 -14 8 -7 8 12 43 33 55 34 4 0 7 -11 7 -25z m182 8 c4 -2 4 -11 1 -19
-4 -11 -14 -14 -31 -11 -35 7 -64 -25 -56 -61 10 -41 14 -44 51 -40 30 4 34 1
31 -16 -2 -17 -11 -22 -45 -24 -46 -3 -82 21 -84 58 -1 11 -2 26 -3 33 -10 65
75 115 136 80z m1033 -50 c-4 -68 0 -77 26 -63 11 6 17 15 14 21 -4 5 29 9 82
9 l89 0 -1 -57 -1 -57 -82 0 c-79 -1 -82 0 -82 22 0 27 -14 28 -50 2 -15 -11
-30 -17 -33 -14 -3 3 -3 39 0 80 6 71 5 74 -16 74 -14 0 -21 6 -21 20 0 17 7
20 40 20 l39 0 -4 -57z m-571 31 c18 -46 -1 -84 -41 -84 -36 0 -58 61 -31 88
17 17 65 15 72 -4z m432 3 c3 -3 -22 -28 -55 -57 -34 -29 -61 -59 -61 -65 0
-16 50 -24 79 -13 12 4 21 14 21 23 0 8 7 15 15 15 17 0 20 -32 5 -61 -9 -16
-22 -19 -73 -19 -36 0 -68 5 -75 12 -22 22 -13 57 24 98 l36 40 -36 0 c-29 0
-36 4 -36 19 0 18 7 19 76 16 42 -2 78 -5 80 -8z"/>
<path d="M4120 1455 c0 -11 7 -15 23 -13 12 2 22 8 22 13 0 6 -10 11 -22 13
-16 2 -23 -2 -23 -13z"/>
<path d="M3627 1504 c-4 -4 -7 -34 -7 -66 0 -51 2 -59 18 -56 14 3 17 14 17
62 -1 55 -11 77 -28 60z"/>
<path d="M1650 1455 c0 -37 2 -38 38 -29 26 7 31 48 6 58 -34 13 -44 7 -44
-29z"/>
<path d="M1892 1428 c-20 -20 -14 -28 23 -28 19 0 35 4 35 8 0 12 -22 32 -35
32 -6 0 -16 -5 -23 -12z"/>
<path d="M2292 1428 c-20 -20 -14 -28 23 -28 19 0 35 4 35 8 0 12 -22 32 -35
32 -6 0 -16 -5 -23 -12z"/>
<path d="M2523 1372 c-14 -2 -23 -10 -23 -22 0 -24 26 -33 45 -14 27 27 17 43
-22 36z"/>
<path d="M4080 1330 c0 -17 7 -20 50 -20 43 0 50 3 50 20 0 17 -7 20 -50 20
-43 0 -50 -3 -50 -20z"/>
</g>
</svg>
